PathFileType	4	(X/Y/Z)	markers.trc
DataRate	CameraRate	NumFrames	NumMarkers	Units	OrigDataRate	OrigDataStartFrame	OrigNumFrames
59.94	59.94	29	12	m	59.94	1	137
Frame#	Time	LEFT_SHOULDER			RIGHT_SHOULDER			LEFT_HIP			RIGHT_HIP			LEFT_KNEE			RIGHT_KNEE			LEFT_ANKLE			RIGHT_ANKLE			LEFT_HEEL			RIGHT_HEEL			LEFT_FOOT_INDEX			RIGHT_FOOT_INDEX		
		X1	Y1	Z1	X2	Y2	Z2	X3	Y3	Z3	X4	Y4	Z4	X5	Y5	Z5	X6	Y6	Z6	X7	Y7	Z7	X8	Y8	Z8	X9	Y9	Z9	X10	Y10	Z10	X11	Y11	Z11	X12	Y12	Z12

115	1.901900	6.634699	2.644052	0.000000	7.045605	2.623961	0.000000	6.721748	3.224465	0.000000	6.934189	3.224094	0.000000	6.773734	3.644967	0.000000	6.934811	3.648366	0.000000	6.832891	4.058421	0.000000	6.939388	4.127698	0.000000	6.854616	4.130088	0.000000	6.922539	4.198332	0.000000	6.773674	4.200574	0.000000	6.968782	4.298284	0.000000
116	1.918583	6.635487	2.644394	0.000000	7.046701	2.628002	0.000000	6.724153	3.236817	0.000000	6.941525	3.236778	0.000000	6.776220	3.650990	0.000000	6.943111	3.661122	0.000000	6.833487	4.058523	0.000000	6.942996	4.136477	0.000000	6.855752	4.128824	0.000000	6.925171	4.208953	0.000000	6.776548	4.200508	0.000000	6.969383	4.298464	0.000000
117	1.935267	6.636262	2.644827	0.000000	7.047786	2.632066	0.000000	6.726462	3.247646	0.000000	6.948124	3.247954	0.000000	6.778489	3.656991	0.000000	6.950541	3.673133	0.000000	6.834014	4.058615	0.000000	6.946330	4.145684	0.000000	6.856749	4.127282	0.000000	6.927418	4.219525	0.000000	6.779210	4.200414	0.000000	6.969835	4.299307	0.000000
118	1.951950	6.637020	2.645423	0.000000	7.048922	2.636100	0.000000	6.728659	3.255999	0.000000	6.953626	3.256597	0.000000	6.780413	3.663052	0.000000	6.956539	3.684006	0.000000	6.834387	4.058568	0.000000	6.949193	4.155454	0.000000	6.857490	4.125144	0.000000	6.929049	4.229794	0.000000	6.781519	4.200275	0.000000	6.969979	4.301483	0.000000
119	1.968633	6.637766	2.646230	0.000000	7.050202	2.639967	0.000000	6.730783	3.261704	0.000000	6.958058	3.262444	0.000000	6.781982	3.669201	0.000000	6.960990	3.693695	0.000000	6.834530	4.058225	0.000000	6.951490	4.165583	0.000000	6.857911	4.122227	0.000000	6.930016	4.239414	0.000000	6.783469	4.200111	0.000000	6.969668	4.305544	0.000000
120	1.985317	6.638512	2.647243	0.000000	7.051724	2.643510	0.000000	6.732855	3.265190	0.000000	6.961620	3.265891	0.000000	6.783253	3.675300	0.000000	6.964127	3.702356	0.000000	6.834354	4.057381	0.000000	6.953211	4.175699	0.000000	6.857977	4.118414	0.000000	6.930375	4.248195	0.000000	6.785150	4.199972	0.000000	6.968801	4.311757	0.000000
121	2.002000	6.639279	2.648370	0.000000	7.053547	2.646598	0.000000	6.734825	3.267147	0.000000	6.964535	3.267643	0.000000	6.784272	3.681134	0.000000	6.966303	3.710246	0.000000	6.833754	4.055747	0.000000	6.954399	4.185380	0.000000	6.857660	4.113501	0.000000	6.930199	4.256126	0.000000	6.786655	4.199909	0.000000	6.967365	4.319934	0.000000
122	2.018683	6.640081	2.649437	0.000000	7.055698	2.649148	0.000000	6.736604	3.268245	0.000000	6.966995	3.268403	0.000000	6.785038	3.686581	0.000000	6.967830	3.717636	0.000000	6.832629	4.052945	0.000000	6.955127	4.194230	0.000000	6.856932	4.107142	0.000000	6.929553	4.263254	0.000000	6.788004	4.199918	0.000000	6.965477	4.329411	0.000000
123	2.035367	6.640928	2.650244	0.000000	7.058196	2.651130	0.000000	6.738118	3.268976	0.000000	6.969166	3.268709	0.000000	6.785501	3.691695	0.000000	6.968923	3.724691	0.000000	6.830922	4.048578	0.000000	6.955485	4.201923	0.000000	6.855792	4.098986	0.000000	6.928490	4.269577	0.000000	6.789143	4.199918	0.000000	6.963380	4.339227	0.000000
124	2.052050	6.641826	2.650627	0.000000	7.061081	2.652559	0.000000	6.739355	3.269603	0.000000	6.971188	3.268881	0.000000	6.785601	3.696685	0.000000	6.969724	3.731421	0.000000	6.828664	4.042354	0.000000	6.955569	4.208251	0.000000	6.854278	4.088829	0.000000	6.927076	4.275018	0.000000	6.790013	4.199763	0.000000	6.961355	4.348434	0.000000
125	2.068733	6.642785	2.650480	0.000000	7.064382	2.653473	0.000000	6.740341	3.270209	0.000000	6.973157	3.269074	0.000000	6.785295	3.701924	0.000000	6.970340	3.737797	0.000000	6.825974	4.034202	0.000000	6.955459	4.213172	0.000000	6.852477	4.076689	0.000000	6.925398	4.279511	0.000000	6.790590	4.199283	0.000000	6.959623	4.356379	0.000000
126	2.085417	6.643796	2.649757	0.000000	7.068066	2.653893	0.000000	6.741099	3.270793	0.000000	6.975095	3.269378	0.000000	6.784571	3.707964	0.000000	6.970859	3.743865	0.000000	6.823026	4.024372	0.000000	6.955219	4.216803	0.000000	6.850501	4.062870	0.000000	6.923550	4.283066	0.000000	6.790884	4.198328	0.000000	6.958293	4.362807	0.000000
127	2.102100	6.644818	2.648471	0.000000	7.072000	2.653784	0.000000	6.741633	3.271372	0.000000	6.976957	3.269891	0.000000	6.783472	3.715426	0.000000	6.971350	3.749699	0.000000	6.820028	4.013486	0.000000	6.954894	4.219314	0.000000	6.848482	4.048026	0.000000	6.921643	4.285711	0.000000	6.790908	4.196832	0.000000	6.957379	4.367761	0.000000
128	2.118783	6.645791	2.646657	0.000000	7.075999	2.653032	0.000000	6.741966	3.272014	0.000000	6.978712	3.270720	0.000000	6.782108	3.724734	0.000000	6.971865	3.755302	0.000000	6.817196	4.002491	0.000000	6.954522	4.220856	0.000000	6.846556	4.033160	0.000000	6.919792	4.287439	0.000000	6.790667	4.194894	0.000000	6.956830	4.371441	0.000000
129	2.135467	6.646674	2.644303	0.000000	7.079899	2.651470	0.000000	6.742154	3.272807	0.000000	6.980403	3.271959	0.000000	6.780615	3.735721	0.000000	6.972438	3.760560	0.000000	6.814711	3.992515	0.000000	6.954137	4.221576	0.000000	6.844818	4.019528	0.000000	6.918118	4.288260	0.000000	6.790161	4.192875	0.000000	6.956559	4.374100	0.000000
130	2.152150	6.647471	2.641341	0.000000	7.083600	2.648924	0.000000	6.742281	3.273809	0.000000	6.982114	3.273641	0.000000	6.779071	3.747362	0.000000	6.973090	3.765295	0.000000	6.812661	3.984663	0.000000	6.953778	4.221657	0.000000	6.843281	4.008491	0.000000	6.916719	4.288257	0.000000	6.789407	4.191437	0.000000	6.956471	4.376000	0.000000
131	2.168833	6.648229	2.637704	0.000000	7.087054	2.645291	0.000000	6.742440	3.274989	0.000000	6.983921	3.275677	0.000000	6.777455	3.757968	0.000000	6.973819	3.769338	0.000000	6.811015	3.979861	0.000000	6.953476	4.221313	0.000000	6.841875	4.001305	0.000000	6.915649	4.287587	0.000000	6.788465	4.191487	0.000000	6.956487	4.377395	0.000000
132	2.185517	6.649006	2.633387	0.000000	7.090256	2.640591	0.000000	6.742713	3.276225	0.000000	6.985870	3.277844	0.000000	6.775652	3.765915	0.000000	6.974609	3.772610	0.000000	6.809625	3.978851	0.000000	6.953244	4.220776	0.000000	6.840472	3.998975	0.000000	6.914890	4.286458	0.000000	6.787397	4.194075	0.000000	6.956567	4.378524	0.000000
133	2.202200	6.649857	2.628475	0.000000	7.093244	2.634989	0.000000	6.743148	3.277364	0.000000	6.987950	3.279871	0.000000	6.773512	3.770343	0.000000	6.975441	3.775189	0.000000	6.808273	3.982321	0.000000	6.953070	4.220270	0.000000	6.838932	4.002337	0.000000	6.914356	4.285108	0.000000	6.786189	4.200286	0.000000	6.956711	4.379594	0.000000
134	2.218883	6.650830	2.623123	0.000000	7.096081	2.628768	0.000000	6.743739	3.278295	0.000000	6.990085	3.281562	0.000000	6.770935	3.771320	0.000000	6.976310	3.777283	0.000000	6.806738	3.991024	0.000000	6.952916	4.219972	0.000000	6.837152	4.012227	0.000000	6.913923	4.283759	0.000000	6.784694	4.211040	0.000000	6.956954	4.380742	0.000000
135	2.235567	6.651941	2.617535	0.000000	7.098823	2.622266	0.000000	6.744409	3.278969	0.000000	6.992141	3.282860	0.000000	6.767946	3.769549	0.000000	6.977212	3.779110	0.000000	6.804834	4.005673	0.000000	6.952724	4.219986	0.000000	6.835092	4.029459	0.000000	6.913468	4.282570	0.000000	6.782638	4.226823	0.000000	6.957357	4.382010	0.000000
136	2.252250	6.653149	2.611965	0.000000	7.101478	2.615803	0.000000	6.745048	3.279368	0.000000	6.993990	3.283813	0.000000	6.764700	3.766015	0.000000	6.978133	3.780788	0.000000	6.802411	4.026564	0.000000	6.952420	4.220341	0.000000	6.832737	4.054447	0.000000	6.912875	4.281653	0.000000	6.779672	4.247454	0.000000	6.957989	4.383353	0.000000
137	2.268933	6.654365	2.606724	0.000000	7.104004	2.609637	0.000000	6.745564	3.279489	0.000000	6.995590	3.284505	0.000000	6.761426	3.761664	0.000000	6.979048	3.782311	0.000000	6.799370	4.053200	0.000000	6.951925	4.220991	0.000000	6.830040	4.086683	0.000000	6.912041	4.281098	0.000000	6.775480	4.272116	0.000000	6.958906	4.384655	0.000000
138	2.285617	6.655470	2.602129	0.000000	7.106330	2.603972	0.000000	6.745912	3.279329	0.000000	6.996972	3.284993	0.000000	6.758363	3.757232	0.000000	6.979950	3.783602	0.000000	6.795679	4.084298	0.000000	6.951167	4.221839	0.000000	6.826908	4.124509	0.000000	6.910900	4.280998	0.000000	6.769950	4.299563	0.000000	6.960113	4.385777	0.000000
139	2.302300	6.656333	2.598412	0.000000	7.108385	2.598964	0.000000	6.746075	3.278895	0.000000	6.998170	3.285289	0.000000	6.755711	3.753236	0.000000	6.980846	3.784599	0.000000	6.791357	4.118119	0.000000	6.950109	4.222773	0.000000	6.823189	4.165474	0.000000	6.909456	4.281438	0.000000	6.763287	4.328330	0.000000	6.961552	4.386623	0.000000
140	2.318983	6.656821	2.595669	0.000000	7.110102	2.594717	0.000000	6.746048	3.278206	0.000000	6.999175	3.285382	0.000000	6.753609	3.750077	0.000000	6.981728	3.785285	0.000000	6.786421	4.152808	0.000000	6.948777	4.223704	0.000000	6.818681	4.207003	0.000000	6.907818	4.282487	0.000000	6.756001	4.356815	0.000000	6.963107	4.387170	0.000000
141	2.335667	6.656822	2.593863	0.000000	7.111435	2.591287	0.000000	6.745830	3.277313	0.000000	6.999950	3.285267	0.000000	6.752123	3.748099	0.000000	6.982562	3.785676	0.000000	6.780894	4.186595	0.000000	6.947278	4.224572	0.000000	6.813195	4.246976	0.000000	6.906186	4.284151	0.000000	6.748730	4.383328	0.000000	6.964657	4.387441	0.000000
142	2.352350	6.656256	2.592861	0.000000	7.112381	2.588702	0.000000	6.745433	3.276314	0.000000	7.000481	3.284969	0.000000	6.751234	3.747598	0.000000	6.983308	3.785816	0.000000	6.774836	4.217956	0.000000	6.945789	4.225328	0.000000	6.806655	4.284049	0.000000	6.904808	4.286322	0.000000	6.742008	4.406215	0.000000	6.966083	4.387461	0.000000
143	2.369033	6.655074	2.592474	0.000000	7.112979	2.586944	0.000000	6.744891	3.275357	0.000000	7.000799	3.284550	0.000000	6.750848	3.748828	0.000000	6.983947	3.785776	0.000000	6.768406	4.245804	0.000000	6.944502	4.225929	0.000000	6.799190	4.317699	0.000000	6.903910	4.288749	0.000000	6.736090	4.424139	0.000000	6.967260	4.387238	0.000000
